<?xml version="1.0" encoding="iso-8859-1"?>
<!-- Generator: Adobe Illustrator 16.0.0, SVG Export Plug-In . SVG Version: 6.00 Build 0)  -->
<!DOCTYPE svg PUBLIC "-//W3C//DTD SVG 1.1//EN" "http://www.w3.org/Graphics/SVG/1.1/DTD/svg11.dtd">
<svg version="1.1" id="Capa_1" xmlns="http://www.w3.org/2000/svg" xmlns:xlink="http://www.w3.org/1999/xlink" x="0px" y="0px"
	 width="774.559px" height="774.559px" viewBox="0 0 774.559 774.559" style="enable-background:new 0 0 774.559 774.559;"
	 xml:space="preserve">
<g>
	<g>
		<path d="M511.324,523.719V313.096L65.689,221.379l-34.499,8.635v289.938v51.438v97.844l448.677,105.326l9.799-5.229
			l253.702-135.307v-58.561L511.324,523.719z M511.355,648.805l0.089-100.043l141.211,33.002L511.355,648.805z"/>
		<path d="M574.165,4.635c-0.124-0.126-0.244-0.256-0.371-0.383L573.546,4.5C559.706,1.56,545.364,0,530.658,0
			c-14.7,0-29.045,1.56-42.883,4.5l-0.246-0.248c-0.128,0.127-0.249,0.256-0.372,0.383C394.293,24.659,324.48,107.415,324.48,206.18
			c0,19.337,2.688,38.056,7.689,55.815l31.082,6.398c-5.691-15.282-9.369-31.537-10.667-48.453h51.768
			c0.944,19.786,3.951,39.486,8.983,58.765l30.446,6.268c-6.751-21.166-10.71-43.038-11.873-65.032h84.988v80.086l8.454,1.74
			l0.271,110.524c1.673,0.043,3.353,0.066,5.034,0.066c14.705,0,29.048-1.557,42.889-4.498c0,0,0.272-0.043,0.617-0.137
			c92.865-20.026,162.674-102.781,162.674-201.545C736.839,107.416,667.03,24.663,574.165,4.635z M404.353,192.419h-51.768
			c4.99-65.094,44.963-120.542,101.153-147.461C423.301,89.422,406.826,140.64,404.353,192.419z M516.899,192.419h-84.988
			c3.104-58.686,26.101-116.499,68.979-162.365c5.262-0.886,10.604-1.532,16.011-1.947L516.899,192.419L516.899,192.419z
			 M708.734,192.419h-51.766c-2.476-51.778-18.948-102.995-49.385-147.459C663.771,71.877,703.745,127.326,708.734,192.419z
			 M544.42,28.106c5.408,0.416,10.75,1.061,16.015,1.947c42.877,45.866,65.873,103.679,68.978,162.365h-84.991L544.42,28.106
			L544.42,28.106z M560.432,382.306c-5.266,0.889-10.604,1.534-16.013,1.947V219.941h84.991
			C626.307,278.628,603.311,336.441,560.432,382.306z M607.582,367.4c30.439-44.462,46.913-95.682,49.388-147.459h51.766
			C703.745,285.036,663.771,340.485,607.582,367.4z"/>
	</g>
</g>
<g>
</g>
<g>
</g>
<g>
</g>
<g>
</g>
<g>
</g>
<g>
</g>
<g>
</g>
<g>
</g>
<g>
</g>
<g>
</g>
<g>
</g>
<g>
</g>
<g>
</g>
<g>
</g>
<g>
</g>
</svg>
